
        <svg xmlns="http://www.w3.org/2000/svg" xmlns:xlink="http://www.w3.org/1999/xlink" version="1.1" width="3240" 
        height="3240" viewBox="0 0 3240 3240">
			<rect fill="#ffffff" width="3240" height="3240"/>
			<g transform="scale(12) translate(10, 10)">
				<defs id="SvgjsDefs5891"></defs><g id="SvgjsG5892" featureKey="rootContainer" transform="matrix(5,0,0,5,0.24999678134918213,0)" fill="#0eeb13"><path xmlns="http://www.w3.org/2000/svg" d="M24.95 0a25 25 0 1 0 25 25 25 25 0 0 0-25-25zm0 46.91a22 22 0 1 1 22-22 22 22 0 0 1-22 21.99z"></path><path xmlns="http://www.w3.org/2000/svg" d="M24.95 3.65a21.3 21.3 0 1 0 21.3 21.3 21.33 21.33 0 0 0-21.3-21.3z"></path></g><g id="SvgjsG5893" featureKey="symbolFeature-0" transform="matrix(1.0110903690025077,0,0,1.0110903690025077,74.94515081181027,48.538463820712224)" fill="#d91895"><path xmlns="http://www.w3.org/2000/svg" d="M65.369,18.946c-7.581,7.581-8.215,15.848-5.816,21.288c0.223,0.502,0.184,1.118-0.309,1.554L19.353,77.234  c-3.376,3-3.221,6.57,0.082,9.873c3.303,3.304,6.872,3.457,9.871,0.082l35.448-39.893c0.438-0.491,1.051-0.529,1.555-0.308  c5.439,2.397,13.705,1.763,21.287-5.817c8.01-8.009,9.946-19.702,3.711-25.938C85.07,8.998,73.379,10.937,65.369,18.946z"></path><path xmlns="http://www.w3.org/2000/svg" d="M34.412,46.546c0.46-0.299,1.037-0.321,1.474,0.171l5.617,6.313l6.57-5.837l-6.695-5.957  c-0.491-0.438-0.47-1.015-0.17-1.474c3.543-5.437,1.646-11.108-3.436-15.376L21.471,11.021c-1.066-0.867-2.132-0.93-3.061-0.001  c-0.932,0.932-0.93,2.134-0.001,3.063l13.49,13.487c0.982,0.984,0.982,2.25,0,3.232l-0.074,0.075c-0.982,0.981-2.25,0.981-3.233,0  L15.104,17.388c-0.93-0.929-2.132-0.93-3.063,0.001c-0.931,0.931-0.93,2.133,0.001,3.061l13.487,13.49  c0.984,0.983,0.984,2.25,0,3.231l-0.072,0.075c-0.982,0.981-2.25,0.981-3.233-0.001L8.735,23.756c-0.93-0.929-2.132-0.931-3.062,0  c-0.93,0.93-0.866,1.995,0.001,3.061l13.365,16.301C23.308,48.201,28.975,50.09,34.412,46.546z"></path><path xmlns="http://www.w3.org/2000/svg" d="M81.844,77.241L59.965,57.773l-7.117,8.009l19.047,21.407c2.998,3.375,6.565,3.217,9.866-0.084  C85.063,83.809,85.217,80.24,81.844,77.241z"></path></g><g id="SvgjsG5894" featureKey="nameFeature-0" transform="matrix(0.8637443060640835,0,0,0.8637443060640835,41.75232018184021,152.56402723286845)" fill="#ffffff"><path d="M18.76 29.560000000000002 c-0.56 1.16 -1.36 2.04 -2.48 2.56 l3.36 7.4 c0.12 0.24 -0.04 0.48 -0.28 0.48 l-4.92 0 c-0.16 0 -0.24 -0.08 -0.28 -0.2 l-3.12 -6.8 l-2.04 0 l0 6.64 c0 0.2 -0.16 0.36 -0.36 0.36 l-4.6 0 c-0.16 0 -0.28 -0.16 -0.28 -0.36 l0 -25.68 c0 -0.2 0.12 -0.36 0.28 -0.36 l8.32 0 c4.44 0 7.12 2.52 7.12 7.2 l0 5.04 c0 1.4 -0.24 2.72 -0.72 3.72 z M14.24 24.6 l0 -2.6 c0 -2.8 -1.04 -3.08 -4.08 -3.08 l-1.16 0 l0 8.84 l1.16 0 c2.52 0 4 -0.04 4.08 -3.16 z M6.68 37.56 l0 -6.84 l5.76 0 l3.36 6.92 c0.08 0.2 0.56 0.12 0.44 -0.24 l-3.36 -6.8 c3.12 -0.44 4.2 -2.08 4.2 -5.04 l0 -5 c0 -4.4 -4 -4.76 -5.24 -4.76 l-5.4 0 c-0.08 0 -0.24 0.12 -0.24 0.24 l0 21.52 c0 0.28 0.48 0.28 0.48 0 z M16.6 20.56 l0 5 c0 4.08 -2.6 4.64 -5.12 4.64 l-4.8 0 l0 -13.88 l5.16 0 c4.32 0 4.76 2.92 4.76 4.24 z M26.880000000000003 40 c-0.2 0 -0.32 -0.16 -0.32 -0.36 l0 -25.68 c0 -0.2 0.12 -0.36 0.32 -0.36 l13.6 0 c0.2 0 0.36 0.16 0.36 0.36 l0 4.28 c0 0.2 -0.16 0.36 -0.36 0.36 l-8.64 0 l0 5.44 l6.72 0 c0.2 0 0.32 0.16 0.32 0.36 l0 4.36 c0 0.2 -0.12 0.36 -0.32 0.36 l-6.72 0 l0 5.88 l8.64 0 c0.2 0 0.36 0.16 0.36 0.36 l0 4.28 c0 0.2 -0.16 0.36 -0.36 0.36 l-13.6 0 z M28.880000000000003 16.12 l0 21.28 c0 0.24 0.16 0.32 0.32 0.32 l9.2 0 c0.36 0 0.28 -0.48 0 -0.48 l-9 0 l0 -10.44 l7.36 0 c0.24 0 0.24 -0.56 0 -0.56 l-7.36 0 l0 -9.92 l9 0 c0.28 0 0.36 -0.52 0 -0.52 l-9.2 0 c-0.16 0 -0.32 0.12 -0.32 0.32 z M56.2 13.600000000000001 c4.44 0 7.12 2.52 7.12 7.2 l0 5.04 c0 4.28 -2.64 7.16 -7.12 7.16 l-3.36 0 l0 6.64 c0 0.2 -0.16 0.36 -0.36 0.36 l-4.6 0 c-0.16 0 -0.28 -0.16 -0.28 -0.36 l0 -25.68 c0 -0.2 0.12 -0.36 0.28 -0.36 l8.32 0 z M58.080000000000005 24.64 l0 -2.64 c0 -2.76 -1.28 -3.04 -4.08 -3.04 l-1.16 0 l0 8.8 l1.16 0 c2.2 0 4.08 -0.4 4.08 -3.12 z M60.92 25.560000000000002 l0 -5 c0 -4.4 -3.4 -4.76 -5.24 -4.76 l-5.4 0 c-0.08 0 -0.24 0.12 -0.24 0.24 l0 21.52 c0 0.28 0.48 0.28 0.48 0 l0 -6.8 l4.8 0 c3.52 0 5.6 -1.24 5.6 -5.2 z M50.52 16.32 l5.16 0 c4.44 0 4.72 2.92 4.72 4.24 l0 5 c0 4.08 -2.56 4.64 -5.08 4.64 l-4.8 0 l0 -13.88 z M73.96000000000001 13.84 c0.04 -0.12 0.12 -0.24 0.28 -0.24 l4.96 0 c0.16 0 0.24 0.12 0.28 0.24 l6.92 25.72 c0.04 0.24 -0.12 0.44 -0.36 0.44 l-4.56 0 c-0.12 0 -0.24 -0.08 -0.28 -0.24 l-1.56 -5.6 l-5.84 0 l-1.52 5.6 c-0.04 0.16 -0.12 0.24 -0.28 0.24 l-4.6 0 c-0.24 0 -0.4 -0.2 -0.36 -0.44 z M75.08 29.2 l3.32 0 l-1.72 -6.04 z M81.24000000000001 31.560000000000002 l1.84 6 c0.08 0.24 0.52 0.2 0.4 -0.12 l-6.4 -21.28 c-0.12 -0.52 -0.8 -0.56 -0.92 0 l-6.2 21.28 c-0.12 0.28 0.32 0.4 0.44 0.16 l1.76 -6.04 l9.08 0 z M72.28 31.04 l4.36 -14.72 l4.44 14.72 l-8.8 0 z M101.00000000000001 23.8 c3.04 1.44 7 3.72 7 7.84 c0 1.2 -0.2 3.52 -1.52 5.48 c-1.48 2.2 -3.8 3.28 -7 3.28 c-3.4 0 -7.36 -1.64 -8.6 -5.36 c-0.04 -0.12 0 -0.24 0.12 -0.32 l3.68 -3.16 c0.16 -0.12 0.4 -0.12 0.52 0.08 c0.08 0.2 0.24 0.52 0.44 0.92 c0.6 1.24 2.04 2.48 3.64 2.48 c1.24 0 2.92 -0.68 2.92 -2.6 c0 -1.84 -2.52 -2.88 -4.08 -3.48 c-1.8 -0.72 -3.64 -1.64 -5.2 -3 c-1.64 -1.52 -2.44 -3.2 -2.44 -5.2 c0 -5 4.6 -7.52 8.96 -7.52 c3.44 0 6 1.8 7.68 5.36 c0.08 0.16 0 0.36 -0.12 0.44 l-3.56 2.48 c-0.16 0.08 -0.24 0.08 -0.4 -0.12 c-1.36 -1.96 -2.56 -2.88 -4.16 -2.88 c-0.84 0 -2.8 0.32 -2.8 1.8 c0 1.8 3.32 2.72 4.92 3.48 z M93.72000000000001 34.84 c1 2 3.76 3.16 6 3.16 c2.92 0 5.28 -2 5.6 -5.04 c0.4 -3.72 -2.52 -5.32 -5.4 -6.76 l-1.28 -0.56 c-2.96 -1.32 -5.12 -2.32 -5.12 -5.08 c0 -3.04 2.8 -4.44 5.56 -4.44 c2.52 0 3.84 1.48 4.52 2.4 c0.24 0.32 0.64 0.04 0.4 -0.28 c-0.68 -0.84 -2.12 -2.6 -4.92 -2.6 c-3.16 0 -6.04 1.56 -6.04 4.92 c0 3 2.4 4.16 5.44 5.56 l1.24 0.6 c3.96 1.88 5.4 3.64 5.08 6.2 c-0.6 4.08 -3.72 4.6 -5.08 4.6 c-3 0 -5 -1.8 -5.6 -2.92 c-0.2 -0.2 -0.48 0 -0.4 0.24 z M141.04000000000002 30 c-1.48 1.04 -5.76 2.8 -5.96 4.72 l9.76 0 c0.2 0 0.36 0.12 0.36 0.32 l0 4.6 c0 0.2 -0.16 0.36 -0.36 0.36 l-15.56 0 c-0.2 0 -0.32 -0.2 -0.32 -0.36 l0 -4.52 c0 -4.88 3.92 -7.6 7.84 -9.8 c1.6 -0.92 4.96 -2.72 3.24 -5.2 c-0.6 -0.92 -1.6 -1.52 -2.8 -1.52 c-1.88 0 -3.16 1.76 -3.16 3.8 l0 0.72 c0 0.28 -0.28 0.44 -0.48 0.28 l-4.64 -2.76 c-0.12 -0.04 -0.16 -0.08 -0.16 -0.4 c0 -4.4 4.28 -7 8.4 -7 c2.48 0 4.6 0.76 6.24 2.2 c1.6 1.48 2.56 3.52 2.76 6 c0.2 3.28 -1.56 6.12 -5.16 8.56 z M143.60000000000002 22.12 c0.04 -1.92 -0.56 -3.68 -1.64 -4.8 c-1.12 -1.16 -2.72 -1.76 -4.76 -1.76 c-3.6 0 -5.04 2.24 -5.6 3.64 c-0.16 0.32 0.4 0.52 0.48 0.16 c0.4 -1.24 1.8 -3.32 5.12 -3.32 c1.88 0 3.4 0.6 4.4 1.6 c1.04 1.12 1.56 2.72 1.44 4.48 c-0.08 2.6 -2.64 4.28 -5.48 5.92 l-0.72 0.36 c-2.64 1.52 -5.44 3.12 -5.44 9.12 c0 0.2 0.16 0.2 0.24 0.2 l10.84 0 c0.32 0 0.32 -0.52 0 -0.52 l-10.52 0 c0.04 -5.56 2.48 -6.88 5.12 -8.36 l0.72 -0.4 c2.96 -1.68 5.64 -3.44 5.8 -6.32 z M160.24 13.239999999999998 c4.8 0 8.44 3.52 8.44 8.56 c0 1.76 -0.64 3.44 -1.92 4.96 c1.28 1.24 1.92 3.16 1.92 5 c0 4.88 -3.32 8.64 -8.44 8.64 c-3.36 0 -6.2 -1.84 -7.96 -5.08 c-0.12 -0.16 -0.04 -0.36 0.08 -0.48 l3.36 -2.52 c0.16 -0.16 0.4 -0.12 0.52 0.04 c1.72 2.36 2.8 2.68 4.12 2.68 c1.08 0 2.72 -1.04 2.72 -2.92 c0 -1.48 -1.04 -3.48 -3.24 -3.48 l-0.72 0 c-0.2 0 -0.4 -0.2 -0.4 -0.4 l0 -3.68 c0 -0.16 0.16 -0.32 0.36 -0.32 l0.6 0 c1.76 0 3.4 -1.2 3.4 -2.72 c0 -1.76 -1.44 -2.96 -3.24 -2.96 c-1.6 0 -2.88 1.28 -3.48 2.68 c-0.08 0.2 -0.28 0.28 -0.48 0.12 l-3.52 -2.64 c-0.12 -0.12 -0.12 -0.2 -0.08 -0.4 c0.8 -3.32 4.6 -5.08 7.96 -5.08 z M166.16 32.96 c0.32 -2.76 -1.48 -5.6 -4.2 -6.52 c2.48 -0.68 4.52 -3.32 4.2 -6.2 c-0.28 -2.8 -3.12 -4.88 -6.32 -4.88 c-1.92 0 -3.4 0.84 -4.32 2.08 c-0.2 0.32 0.2 0.52 0.36 0.32 c1 -1.12 2.04 -1.92 3.88 -1.92 c2.92 0 5.6 1.72 5.92 4.48 c0.28 2.72 -1.76 5.12 -4.36 5.88 c-0.24 0.12 -0.28 0.44 0 0.56 c2.64 0.56 4.64 3.4 4.36 6.16 c-0.24 2.64 -3 4.84 -6 4.6 c-1.52 -0.16 -2.84 -0.76 -3.8 -1.96 c-0.24 -0.36 -0.72 0 -0.4 0.36 c1.16 1.32 2.88 2.08 4.48 2.08 c2.96 0 5.88 -1.84 6.2 -5.04 z M175.04 18.6 c-0.2 0 -0.32 -0.16 -0.32 -0.36 l0 -4.28 c0 -0.2 0.12 -0.36 0.32 -0.36 l13.6 0 c0.2 0 0.36 0.16 0.36 0.36 l0 4.64 l-8.44 21.2 c-0.04 0.12 -0.2 0.2 -0.32 0.2 l-5.08 0 c-0.24 0 -0.4 -0.24 -0.32 -0.44 l8.36 -20.96 l-8.16 0 z M178.56 38 l8.56 -20.84 c0.28 -0.76 -0.16 -1.36 -0.96 -1.36 l-8.72 0 c-0.24 0 -0.28 0.52 0 0.52 l8.72 0 c0.4 0 0.6 0.32 0.48 0.68 l-8.48 20.8 c-0.12 0.32 0.28 0.44 0.4 0.2 z"></path></g>
			</g>
		</svg>
	