
        <svg xmlns="http://www.w3.org/2000/svg" xmlns:xlink="http://www.w3.org/1999/xlink" version="1.1" width="3160.3777805171744" 
        height="896.0194889598398" viewBox="-32.075556103434764 0 3160.3777805171744 896.0194889598398">
			
			<g transform="scale(8.018889025858691) translate(10, 10)">
				<defs id="SvgjsDefs1908"></defs><g id="SvgjsG1909" featureKey="HKaMnE-0" transform="matrix(0.36978663371387027,0,0,0.36978663371387027,-3.902753406672693,20)" fill="#1437e8"><defs xmlns="http://www.w3.org/2000/svg"></defs><g xmlns="http://www.w3.org/2000/svg"><path class="fil0" d="M115 43c2,0 3,-2 3,-5 0,-3 -3,-5 -6,-5 -3,0 -5,2 -5,5 0,3 1,5 3,5 -20,1 -37,10 -50,23 -10,-8 -32,-6 -33,-7 -4,-2 -7,-6 -10,-5 -2,1 -3,0 -4,0 -3,-2 -4,-12 -10,-6 1,3 0,5 -3,5 -2,9 8,4 10,5 1,0 2,1 2,3 1,3 6,4 10,6 11,6 8,16 20,22 1,1 2,2 4,2 -1,1 -1,3 -1,4 -3,-3 -8,-6 -13,-9 -7,-3 -12,-4 -15,-3 -17,15 2,37 25,34 -19,5 -44,-11 -30,-31 -19,19 12,39 30,33l0 1 120 0c3,-28 -8,-55 -32,-69 25,10 43,35 43,64 0,2 0,4 0,5l9 0c1,-3 1,-6 1,-9 15,-33 38,-69 57,-101 3,-28 -62,58 -52,74l-7 13c-2,-6 -4,-12 -7,-18 1,-5 3,-11 5,-16 7,-1 12,-4 15,-12 6,-15 9,-30 13,-45 -6,12 -11,25 -15,38 -1,3 -3,1 -3,-1 5,-13 8,-26 12,-39 -6,13 -11,24 -15,38 -1,2 -3,2 -2,-1 4,-13 8,-25 12,-39 -6,13 -12,25 -16,38 -1,1 -3,2 -2,-1 4,-13 9,-26 12,-39 -7,14 -14,28 -19,43 -3,8 0,13 4,19 -1,4 -3,8 -4,12 -13,-18 -33,-30 -56,-31zm-56 25c-1,1 -2,2 -2,3 -6,-5 -14,-8 -21,-8 8,-1 17,1 23,5zm-17 38l0 1c-1,-1 -2,-2 -5,-1 -2,0 -3,-2 -5,-1 -5,1 -8,0 -12,-1 8,-1 17,3 10,-10 3,2 3,4 4,5 5,0 4,3 6,6 0,0 1,1 2,1zm-5 -2c2,-1 -1,-5 -3,-4 -2,2 1,6 3,4z" style="fill: #1437e8;"></path><path class="fil0" d="M72 130c2,3 5,6 6,9 1,4 -8,14 -6,19 2,11 -2,11 -7,18 5,2 11,6 16,8 15,-24 43,-38 64,-47 -1,-3 -3,-4 -7,-3 -11,4 -22,8 -33,13 -14,6 -19,3 -19,-5 0,-6 -3,-10 -6,-12l24 0c-2,4 -6,14 -9,19 6,-1 15,-6 22,-8 4,-9 7,-9 6,-11l9 0c-4,1 -11,8 -14,10 5,-2 10,-4 15,-6 3,-2 4,-4 3,-4l56 0c3,0 3,-6 0,-6l-159 0c-3,0 -3,6 0,6l39 0zm46 0l-9 0c0,3 -3,11 -5,14 0,1 1,0 3,-1 3,-4 7,-11 11,-13z" style="fill: #1437e8;"></path><path class="fil0" d="M82 187l-21 -10 -17 17 31 0 7 -7zm-20 -7c1,0 3,1 3,2 0,1 -1,2 -2,2 -2,0 -3,-1 -3,-2 0,-1 1,-2 2,-2z" style="fill: #1437e8;"></path></g></g><g id="SvgjsG1910" featureKey="J3GnXt-0" transform="matrix(2.887181065203443,0,0,2.887181065203443,104.14953217593005,13.138862138663026)" fill="#f51041"><path d="M4.54 5.84 l4.5 10.72 l0.08 0 l4.46 -10.72 l2.86 0 l0 14.16 l-1.92 0 l0 -11.64 l-0.04 0 l-4.78 11.64 l-1.28 0 l-4.78 -11.64 l-0.04 0 l0 11.64 l-1.92 0 l0 -14.16 l2.86 0 z M23.82 10.28 c1.4533 0 2.5834 0.45664 3.39 1.37 s1.2167 2.17 1.23 3.77 l0 0.5 l-7.6 0 c0 0.77334 0.31 1.4233 0.93 1.95 s1.3767 0.79666 2.27 0.81 c0.98666 0 1.8533 -0.47334 2.6 -1.42 l1.36 1.04 c-1.0133 1.2933 -2.4134 1.94 -4.2 1.94 c-1.4533 0 -2.6234 -0.46334 -3.51 -1.39 s-1.3433 -2.1234 -1.37 -3.59 c0 -1.4133 0.45666 -2.59 1.37 -3.53 s2.09 -1.4233 3.53 -1.45 z M26.520000000000003 14.48 c-0.02666 -0.89334 -0.28 -1.5767 -0.76 -2.05 s-1.14 -0.71 -1.98 -0.71 c-0.56 0 -1.0633 0.13666 -1.51 0.41 s-0.79666 0.62668 -1.05 1.06 s-0.38 0.86334 -0.38 1.29 l5.68 0 z M33.800000000000004 10.28 c0.72 0 1.3633 0.13338 1.93 0.40004 s1.0033 0.65332 1.31 1.16 l-1.4 1.06 c-0.53334 -0.62666 -1.18 -0.94 -1.94 -0.94 c-0.45334 0 -0.83 0.1 -1.13 0.3 s-0.45 0.45334 -0.45 0.76 c0 0.66666 0.62 1.12 1.86 1.36 c1.2133 0.22666 2.07 0.56 2.57 1 s0.75 1.0667 0.75 1.88 c0 0.92 -0.35 1.6433 -1.05 2.17 s-1.6367 0.79666 -2.81 0.81 c-0.88 0 -1.6033 -0.13666 -2.17 -0.41 s-1.0567 -0.69668 -1.47 -1.27 l1.36 -1.12 c0.72 0.74666 1.4867 1.12 2.3 1.12 c0.53334 0 0.98668 -0.10666 1.36 -0.32 s0.56 -0.50668 0.56 -0.88002 c0 -0.65334 -0.6 -1.1067 -1.8 -1.36 c-1.3333 -0.26666 -2.23 -0.62332 -2.69 -1.07 s-0.69 -1.0233 -0.69 -1.73 c0 -0.88 0.34 -1.5833 1.02 -2.11 s1.54 -0.79666 2.58 -0.81 z M45.02 5.84 c1.3867 0 2.4734 0.34666 3.26 1.04 s1.18 1.6667 1.18 2.92 c0 0.94666 -0.32334 1.7733 -0.97 2.48 s-1.4767 1.1267 -2.49 1.26 l-0.02 0 l4.02 6.46 l-2.4 0 l-3.6 -6.24 l-2.14 0 l0 6.24 l-1.92 0 l0 -14.16 l5.08 0 z M44.46000000000001 12.08 c1 0 1.7433 -0.18336 2.23 -0.55002 s0.73 -0.94332 0.73 -1.73 c0 -1.52 -0.98666 -2.28 -2.96 -2.28 l-2.6 0 l0 4.56 l2.6 0 z M56.040000000000006 10.28 c1.4533 0 2.5834 0.45664 3.39 1.37 s1.2167 2.17 1.23 3.77 l0 0.5 l-7.6 0 c0 0.77334 0.31 1.4233 0.93 1.95 s1.3767 0.79666 2.27 0.81 c0.98666 0 1.8533 -0.47334 2.6 -1.42 l1.36 1.04 c-1.0133 1.2933 -2.4134 1.94 -4.2 1.94 c-1.4533 0 -2.6234 -0.46334 -3.51 -1.39 s-1.3433 -2.1234 -1.37 -3.59 c0 -1.4133 0.45666 -2.59 1.37 -3.53 s2.09 -1.4233 3.53 -1.45 z M58.74 14.48 c-0.02666 -0.89334 -0.28 -1.5767 -0.76 -2.05 s-1.14 -0.71 -1.98 -0.71 c-0.56 0 -1.0633 0.13666 -1.51 0.41 s-0.79666 0.62668 -1.05 1.06 s-0.38 0.86334 -0.38 1.29 l5.68 0 z M67.98 10.28 c1.4 0 2.5434 0.45998 3.43 1.38 s1.3433 2.12 1.37 3.6 c0 1.48 -0.45334 2.6766 -1.36 3.59 s-2.06 1.3767 -3.46 1.39 c-0.69334 0 -1.34 -0.14666 -1.94 -0.44 s-1.0533 -0.68 -1.36 -1.16 l-0.04 0 l0 7 l-1.8 0 l0 -15.12 l1.8 0 l0 1.36 l0.04 0 c0.36 -0.50666 0.83334 -0.9 1.42 -1.18 s1.22 -0.42 1.9 -0.42 z M64.62 15.26 c0 0.98666 0.28998 1.7833 0.86998 2.39 s1.33 0.91 2.25 0.91 c0.96 0 1.7167 -0.30334 2.27 -0.91 s0.83668 -1.4033 0.85002 -2.39 c0 -0.98666 -0.28334 -1.78 -0.85 -2.38 s-1.33 -0.90666 -2.29 -0.92 c-0.94666 0 -1.7 0.31 -2.26 0.93 s-0.84 1.41 -0.84 2.37 z M78.84 10.28 c1.2 0 2.15 0.27328 2.85 0.81994 s1.07 1.3067 1.11 2.28 l0 5.08 c0 0.48 0.02666 0.99334 0.08 1.54 l-1.6 0 c-0.04 -0.42666 -0.06 -0.90666 -0.06 -1.44 l-0.04 0 c-0.41334 0.61334 -0.89 1.0467 -1.43 1.3 s-1.17 0.38 -1.89 0.38 c-0.97334 0 -1.7633 -0.26 -2.37 -0.78 s-0.91 -1.2067 -0.91 -2.06 c0 -1.08 0.45334 -1.8967 1.36 -2.45 s2.1866 -0.83 3.84 -0.83 l1.34 0 l0 -0.34 c0 -0.64 -0.21 -1.1433 -0.63 -1.51 s-0.97 -0.55 -1.65 -0.55 c-0.50666 0 -0.95 0.07666 -1.33 0.23 s-0.83 0.43668 -1.35 0.85002 l-1.08 -1.12 c1.0267 -0.90666 2.28 -1.3733 3.76 -1.4 z M76.38000000000001 17.259999999999998 c0 1.0267 0.68002 1.54 2.04 1.54 c0.81334 0 1.4633 -0.24334 1.95 -0.73 s0.73666 -1.19 0.75 -2.11 l0 -0.52 l-1.02 0 c-1.1733 0 -2.0866 0.15 -2.74 0.45 s-0.98 0.75666 -0.98 1.37 z M88.62 10.28 c0.72 0 1.3633 0.13338 1.93 0.40004 s1.0033 0.65332 1.31 1.16 l-1.4 1.06 c-0.53334 -0.62666 -1.18 -0.94 -1.94 -0.94 c-0.45334 0 -0.83 0.1 -1.13 0.3 s-0.45 0.45334 -0.45 0.76 c0 0.66666 0.62 1.12 1.86 1.36 c1.2133 0.22666 2.07 0.56 2.57 1 s0.75 1.0667 0.75 1.88 c0 0.92 -0.35 1.6433 -1.05 2.17 s-1.6367 0.79666 -2.81 0.81 c-0.88 0 -1.6033 -0.13666 -2.17 -0.41 s-1.0567 -0.69668 -1.47 -1.27 l1.36 -1.12 c0.72 0.74666 1.4867 1.12 2.3 1.12 c0.53334 0 0.98668 -0.10666 1.36 -0.32 s0.56 -0.50668 0.56 -0.88002 c0 -0.65334 -0.6 -1.1067 -1.8 -1.36 c-1.3333 -0.26666 -2.23 -0.62332 -2.69 -1.07 s-0.69 -1.0233 -0.69 -1.73 c0 -0.88 0.34 -1.5833 1.02 -2.11 s1.54 -0.79666 2.58 -0.81 z"></path></g>
			</g>
		</svg>
	